<svg xmlns="http://www.w3.org/2000/svg" width="25" height="25" viewBox="0 0 25 25">
  <g id="calendar" transform="translate(0 0)">
    <path id="Path_38" data-name="Path 38" d="M3.126,3.906V.781a.781.781,0,0,1,1.563,0V3.906a.781.781,0,0,1-1.563,0Zm13.281.781a.781.781,0,0,0,.781-.781V.781a.781.781,0,0,0-1.563,0V3.906A.781.781,0,0,0,16.407,4.688ZM25,18.75a6.25,6.25,0,1,1-6.25-6.25A6.25,6.25,0,0,1,25,18.75Zm-1.562,0a4.688,4.688,0,1,0-4.688,4.688A4.693,4.693,0,0,0,23.439,18.75ZM6.251,9.375H3.126V12.5H6.251ZM3.126,17.188H6.251V14.062H3.126ZM7.813,12.5h3.125V9.375H7.813Zm0,4.688h3.125V14.062H7.813Zm-6.25,1.407V7.812H18.751v3.125h1.563V4.843a1.7,1.7,0,0,0-1.692-1.718H17.97v.781a1.562,1.562,0,1,1-3.125,0V3.125H5.47v.781a1.562,1.562,0,1,1-3.125,0V3.125H1.694A1.706,1.706,0,0,0,0,4.843V18.595a1.707,1.707,0,0,0,1.693,1.718h9.245V18.75H1.694A.148.148,0,0,1,1.564,18.595ZM15.626,12.5V9.375H12.5V12.5Zm5.469,6.25H18.751V16.406a.781.781,0,0,0-1.562,0v3.125a.781.781,0,0,0,.781.781h3.125a.781.781,0,0,0,0-1.563Z" transform="translate(-0.001)" fill="#b99c66"/>
  </g>
</svg>
