<svg xmlns="http://www.w3.org/2000/svg" width="23.546" height="18.5" viewBox="0 0 23.546 18.5">
  <g id="envelope" transform="translate(0 0)">
    <g id="Group_75" data-name="Group 75">
      <path id="Path_39" data-name="Path 39" d="M37.665,330.718a2.013,2.013,0,0,0,1.378-.52l-6.671-6.671-.462.332q-.749.552-1.216.86a7.485,7.485,0,0,1-1.242.631,3.785,3.785,0,0,1-1.445.322h-.026a3.783,3.783,0,0,1-1.445-.322,7.461,7.461,0,0,1-1.242-.631q-.467-.308-1.216-.86c-.139-.1-.294-.214-.46-.334L16.946,330.2a2.013,2.013,0,0,0,1.378.52Z" transform="translate(-16.222 -312.217)" fill="#b99c66"/>
      <path id="Path_40" data-name="Path 40" d="M1.327,199.7A6.966,6.966,0,0,1,0,198.555V208.7l5.88-5.88Q4.115,201.593,1.327,199.7Z" transform="translate(0 -192.59)" fill="#b99c66"/>
      <path id="Path_41" data-name="Path 41" d="M417.872,199.7q-2.685,1.817-4.563,3.129l5.877,5.878v-10.15A7.25,7.25,0,0,1,417.872,199.7Z" transform="translate(-395.641 -192.59)" fill="#b99c66"/>
      <path id="Path_42" data-name="Path 42" d="M21.449,59.013H2.108A1.876,1.876,0,0,0,.551,59.7,2.651,2.651,0,0,0,.006,61.4,3.07,3.07,0,0,0,.729,63.2a6.519,6.519,0,0,0,1.537,1.517q.447.316,2.694,1.872c.809.56,1.512,1.049,2.116,1.47.515.359.959.67,1.326.928l.2.14.362.261q.427.309.709.5t.683.427a3.986,3.986,0,0,0,.756.355,2.091,2.091,0,0,0,.657.118h.026a2.091,2.091,0,0,0,.657-.118,3.977,3.977,0,0,0,.756-.355q.4-.237.683-.427t.71-.5l.362-.261.2-.14,1.33-.924,4.82-3.346a6.25,6.25,0,0,0,1.6-1.616,3.476,3.476,0,0,0,.643-1.984,2.12,2.12,0,0,0-2.1-2.1Z" transform="translate(-0.006 -59.013)" fill="#b99c66"/>
    </g>
  </g>
</svg>
