<svg id="instagram_5_" data-name="instagram (5)" xmlns="http://www.w3.org/2000/svg" width="20.639" height="20.639" viewBox="0 0 20.639 20.639">
  <g id="Group_9" data-name="Group 9">
    <g id="Group_8" data-name="Group 8">
      <path id="Path_3" data-name="Path 3" d="M14.19,0H6.45A6.45,6.45,0,0,0,0,6.45v7.74a6.45,6.45,0,0,0,6.45,6.45h7.74a6.451,6.451,0,0,0,6.45-6.45V6.45A6.45,6.45,0,0,0,14.19,0ZM18.7,14.19A4.52,4.52,0,0,1,14.19,18.7H6.45A4.52,4.52,0,0,1,1.935,14.19V6.45A4.52,4.52,0,0,1,6.45,1.935h7.74A4.52,4.52,0,0,1,18.7,6.45Z" fill="#434c58"/>
    </g>
  </g>
  <g id="Group_11" data-name="Group 11" transform="translate(5.16 5.16)">
    <g id="Group_10" data-name="Group 10">
      <path id="Path_4" data-name="Path 4" d="M5.16,0a5.16,5.16,0,1,0,5.16,5.16A5.16,5.16,0,0,0,5.16,0Zm0,8.385A3.225,3.225,0,1,1,8.385,5.16,3.229,3.229,0,0,1,5.16,8.385Z" fill="#434c58"/>
    </g>
  </g>
  <g id="Group_13" data-name="Group 13" transform="translate(15.179 4.085)">
    <g id="Group_12" data-name="Group 12">
      <circle id="Ellipse_2" data-name="Ellipse 2" cx="0.688" cy="0.688" r="0.688" fill="#434c58"/>
    </g>
  </g>
</svg>
