<svg xmlns="http://www.w3.org/2000/svg" width="16.189" height="23.5" viewBox="0 0 16.189 23.5">
  <g id="location" transform="translate(0 0)">
    <path id="Facebook_Places" d="M82.712,5.849a7.321,7.321,0,0,0-.379-.94A8.051,8.051,0,0,0,66.9,7.29v1c0,.042.014.418.035.606.293,2.339,2.139,4.826,3.517,7.165C71.94,18.57,73.479,21.035,75,23.5c.94-1.608,1.877-3.238,2.8-4.8.25-.46.541-.919.792-1.358.167-.292.486-.584.632-.856,1.483-2.715,3.87-5.452,3.87-8.147V7.228A8.34,8.34,0,0,0,82.712,5.849Zm-7.756,5.034A2.873,2.873,0,0,1,72.2,8.92a2.724,2.724,0,0,1-.077-.731V7.541a2.72,2.72,0,0,1,2.918-2.673,2.958,2.958,0,0,1,2.964,3.008A3.034,3.034,0,0,1,74.955,10.883Z" transform="translate(-66.905)" fill="#b99c66"/>
  </g>
</svg>
