<svg id="Horsyn_-_Logo" data-name="Horsyn - Logo" xmlns="http://www.w3.org/2000/svg" width="140" height="62.234" viewBox="0 0 140 62.234">
  <g id="Group_99" data-name="Group 99" transform="translate(45.801 32.047)">
    <g id="Group_86" data-name="Group 86" transform="translate(0 0.027)">
      <g id="Group_84" data-name="Group 84" transform="translate(0.492 0.465)">
        <path id="Path_222" data-name="Path 222" d="M178.077,126.492v13.316c0,4.047-.383,7.3-4.348,7.3-3.937,0-4.43-3.254-4.43-7.3V126.492c0-4.047.383-7.492,4.43-7.492S178.077,122.445,178.077,126.492Zm-.793,13.316V126.492c0-3.746-.3-6.809-3.555-6.809s-3.637,3.063-3.637,6.809v13.316c0,3.746.3,6.617,3.637,6.617S177.284,143.555,177.284,139.809Z" transform="translate(-169.3 -119)" fill="#010101"/>
      </g>
      <g id="Group_85" data-name="Group 85">
        <path id="Path_223" data-name="Path 223" d="M172.422,146.284c-4.539,0-4.922-3.855-4.922-7.793V125.284c0-3.855.383-7.984,4.922-7.984s4.84,3.938,4.84,7.984V138.6C177.262,142.429,176.852,146.284,172.422,146.284Zm0-27.344c-2.652,0-3.145,2.16-3.145,6.316v13.316c0,4.156.492,6.125,3.145,6.125s3.063-1.887,3.063-6.125V125.257C175.484,120.909,174.992,118.941,172.422,118.941Z" transform="translate(-167.5 -117.3)" fill="#010101"/>
      </g>
    </g>
    <g id="Group_89" data-name="Group 89" transform="translate(22.367 0.191)">
      <g id="Group_87" data-name="Group 87" transform="translate(0.492 0.492)">
        <path id="Path_224" data-name="Path 224" d="M255.858,136.763h-3.965v10.555H251.1V119.7h3.937c4.348,0,4.348,3.445,4.348,7.492v2.16c0,3.938-.383,6.617-2.379,7.3Zm0-.574c2.27,0,2.762-2.461,2.762-6.918v-2.16c0-3.746,0-6.809-3.555-6.809h-3.172v15.777h3.938v.109Z" transform="translate(-251.1 -119.7)" fill="#010101"/>
      </g>
      <g id="Group_88" data-name="Group 88">
        <path id="Path_225" data-name="Path 225" d="M251.077,146.5H249.3V117.9h4.43c4.84,0,4.84,4.047,4.84,7.984v2.16c0,4.238-.492,7-2.762,7.684l-1.285.3h-3.445V146.5Zm0-12.113h3.445c1.668,0,2.27-1.586,2.27-6.426V125.8c0-4.047-.109-6.316-3.063-6.316h-2.652v14.9Z" transform="translate(-249.3 -117.9)" fill="#010101"/>
      </g>
    </g>
    <g id="Group_92" data-name="Group 92" transform="translate(43.094)">
      <g id="Group_90" data-name="Group 90" transform="translate(0.574 0.41)">
        <path id="Path_226" data-name="Path 226" d="M331.848,146.809c-4.156,0-4.43-2.762-4.047-8.477h.793c-.6,6.316.191,7.793,3.254,7.793,2.461,0,3.555-.984,3.555-5.031,0-3.937-.984-5.223-3.855-8.477-3.637-4.156-4.348-5.523-4.348-8.586,0-2.953.6-5.332,4.238-5.332,3.938,0,4.348,2.871,3.938,8.477h-.793c.6-6.508-.383-7.793-3.145-7.793-2.379,0-3.363.875-3.363,4.539,0,3.555.984,4.73,4.238,8.395,3.063,3.445,3.855,4.922,3.855,8.887C336.2,144.43,335.7,146.809,331.848,146.809Z" transform="translate(-327.2 -118.7)" fill="#010101"/>
      </g>
      <g id="Group_91" data-name="Group 91">
        <path id="Path_227" data-name="Path 227" d="M330.323,146.212a4.536,4.536,0,0,1-3.445-1.176c-1.285-1.395-1.395-3.746-1.094-7.793v-.492h1.777l-.109.492c-.383,3.746-.191,5.715.6,6.617a2.6,2.6,0,0,0,2.16.684c2.078,0,3.063-.684,3.063-4.539,0-3.746-.875-4.922-3.746-8.094-3.746-4.238-4.43-5.633-4.43-8.887,0-2.871.6-5.824,4.73-5.824a4.083,4.083,0,0,1,3.254,1.176c1.285,1.395,1.395,3.938,1.094,7.793v.492H332.4v-.492c.3-3.746.109-5.824-.6-6.617a2.764,2.764,0,0,0-2.078-.6c-1.969,0-2.871.6-2.871,4.047,0,3.363.875,4.43,4.156,7.984,3.145,3.555,3.937,5.031,3.937,9.27C335.163,143.04,334.78,146.212,330.323,146.212Z" transform="translate(-325.1 -117.2)" fill="#010101"/>
      </g>
    </g>
    <g id="Group_95" data-name="Group 95" transform="translate(62.727 0.191)">
      <g id="Group_93" data-name="Group 93" transform="translate(0.574 0.492)">
        <path id="Path_228" data-name="Path 228" d="M404.141,136.462v10.855h-.793l-.109-10.855L399,119.7h.793l3.855,15.969L407.7,119.7h.793Z" transform="translate(-399 -119.7)" fill="#010101"/>
      </g>
      <g id="Group_94" data-name="Group 94">
        <path id="Path_229" data-name="Path 229" d="M403.107,146.5H401.33l-.082-11.348L396.9,117.9h1.777l3.445,14.41,3.664-14.41h1.777l-4.457,17.363Z" transform="translate(-396.9 -117.9)" fill="#010101"/>
      </g>
    </g>
    <g id="Group_98" data-name="Group 98" transform="translate(84.328 0.191)">
      <g id="Group_96" data-name="Group 96" transform="translate(0.602 0.492)">
        <path id="Path_230" data-name="Path 230" d="M486.877,119.7v27.617h-.684l-6.617-22.285-.793-3.062.109,6.508v18.949H478.1V119.809h.684l6.7,22.395.793,2.953-.109-6.617V119.782h.684V119.7Z" transform="translate(-478.1 -119.7)" fill="#010101"/>
      </g>
      <g id="Group_97" data-name="Group 97">
        <path id="Path_231" data-name="Path 231" d="M477.486,117.9l6.508,21.9-.109-2.652V117.9h1.887v28.6h-.684V147.9l-.41-1.395h-.492l-6.508-21.9v21.9H475.9V117.9h1.586" transform="translate(-475.9 -117.9)" fill="#010101"/>
      </g>
    </g>
  </g>
  <g id="Group_100" data-name="Group 100">
    <path id="Path_232" data-name="Path 232" d="M12.633,62.152,6.617,52.227v-.3A86.975,86.975,0,0,0,5.551,36.832C4.348,30.27.629,27.4.6,27.371l-.6-.41.273-.711c1.285-3.281,3.281-8.613,3.5-9.762a4.67,4.67,0,0,0-.574-1.7A12.74,12.74,0,0,1,1.8,7.273C2.57,1.477,9.516.246,9.816.191L10.965,0V10.938h8.094v49.93ZM8.586,51.707l5,8.23,3.473-.684V12.906H9V2.434C7.273,2.98,4.184,4.375,3.746,7.52a10.591,10.591,0,0,0,1.23,6.426,4.908,4.908,0,0,1,.738,2.871c-.273,1.5-2.543,7.438-3.363,9.516A18.463,18.463,0,0,1,7.465,36.5,83.76,83.76,0,0,1,8.586,51.707Z" fill="#b99c66"/>
  </g>
  <g id="Group_101" data-name="Group 101" transform="translate(0.44 11.464)">
    <rect id="Rectangle_24" data-name="Rectangle 24" width="22.121" height="1.969" transform="matrix(0.759, -0.651, 0.651, 0.759, 0, 14.41)" fill="#b99c66"/>
  </g>
  <g id="Group_102" data-name="Group 102" transform="translate(6.699 11.867)">
    <path id="Path_233" data-name="Path 233" d="M34.754,91.963,24.5,83.677,34.7,43.4l1.914.492-9.9,39.047,9.27,7.492Z" transform="translate(-24.5 -43.4)" fill="#b99c66"/>
  </g>
  <g id="Group_103" data-name="Group 103" transform="translate(4.163 11.015)">
    <rect id="Rectangle_25" data-name="Rectangle 25" width="7.465" height="1.969" transform="matrix(0.739, -0.673, 0.673, 0.739, 0, 5.027)" fill="#b99c66"/>
  </g>
  <g id="Group_104" data-name="Group 104" transform="translate(1.176 24.703)">
    <path id="Path_234" data-name="Path 234" d="M36.183,102.307H20.515L10.07,92.982c-.547-.246-3.008-1.23-4.758-.191L4.3,91.1c2.9-1.75,6.617.082,6.781.164l.219.137,9.98,8.914h14.9Z" transform="translate(-4.3 -90.341)" fill="#b99c66"/>
  </g>
  <g id="Group_105" data-name="Group 105" transform="translate(32.266 11.238)">
    <rect id="Rectangle_26" data-name="Rectangle 26" width="1.969" height="49.438" fill="#b99c66"/>
  </g>
  <g id="Group_108" data-name="Group 108" transform="translate(73.117 49.41)">
    <g id="Group_106" data-name="Group 106" transform="translate(0.793 0.301)">
      <path id="Path_235" data-name="Path 235" d="M270.3,181.8" transform="translate(-270.3 -181.8)" fill="#010101"/>
    </g>
    <g id="Group_107" data-name="Group 107">
      <path id="Path_236" data-name="Path 236" d="M270.545,192.13,267.4,181.192l1.668-.492,3.254,11.43Z" transform="translate(-267.4 -180.7)" fill="#010101"/>
    </g>
  </g>
</svg>
